<svg xmlns="http://www.w3.org/2000/svg" width="19" height="18" viewBox="0 0 19 18" fill="none">
    <rect width="17.5" height="17.5" transform="translate(0.75 0.25)" fill="white" />
    <path fill-rule="evenodd" clip-rule="evenodd"
        d="M17.55 9.19048C17.55 8.59588 17.4966 8.02414 17.3975 7.47528H9.5V10.7189H14.0129C13.8185 11.7671 13.2277 12.6552 12.3396 13.2498V15.3538H15.0496C16.6352 13.8939 17.55 11.7442 17.55 9.19048Z"
        fill="#4285F4" />
    <path fill-rule="evenodd" clip-rule="evenodd"
        d="M9.49937 17.3852C11.7634 17.3852 13.6616 16.6343 15.049 15.3536L12.339 13.2497C11.5881 13.7528 10.6276 14.0501 9.49937 14.0501C7.31535 14.0501 5.46675 12.575 4.80735 10.593H2.00586V12.7656C3.38564 15.5061 6.22144 17.3852 9.49937 17.3852Z"
        fill="#34A853" />
    <path fill-rule="evenodd" clip-rule="evenodd"
        d="M4.80765 10.5932C4.63994 10.0901 4.54466 9.55268 4.54466 9.00001C4.54466 8.44733 4.63994 7.9099 4.80765 7.40678V5.23419H2.00616C1.43824 6.36622 1.11426 7.6469 1.11426 9.00001C1.11426 10.3531 1.43824 11.6338 2.00616 12.7658L4.80765 10.5932Z"
        fill="#FBBC05" />
    <path fill-rule="evenodd" clip-rule="evenodd"
        d="M9.49937 3.94961C10.7305 3.94961 11.8359 4.37269 12.7049 5.20361L15.11 2.79852C13.6578 1.44542 11.7596 0.614502 9.49937 0.614502C6.22144 0.614502 3.38564 2.4936 2.00586 5.2341L4.80735 7.40669C5.46675 5.42468 7.31535 3.94961 9.49937 3.94961Z"
        fill="#EA4335" />
</svg>