<svg width="41" height="85" viewBox="0 0 41 85" fill="none" xmlns="http://www.w3.org/2000/svg">
    <g clip-path="url(#clip0_1937_11918)">
        <path
            d="M9.06222 67.6826C9.7782 60.5303 11.5459 55.8202 16.1145 49.2982C15.7625 47.2345 15.405 44.7253 15.1682 41.9946C15.0921 41.1135 15.0324 40.2498 14.9867 39.4022C13.7634 41.3244 11.7621 45.6302 9.03832 52.2019L-0.00108719 48.4928C3.96995 38.9114 5.74089 35.7429 6.72849 34.1926C8.8308 30.8911 9.82927 29.756 14.6249 24.3021C15.4094 23.4102 16.3013 22.3951 17.3248 21.2276L17.3346 21.2362C17.3943 21.0903 17.4552 20.9454 17.5171 20.8027C15.8657 18.6266 14.8857 15.9207 14.8857 12.9899C14.8868 5.82796 20.7439 0 27.9439 0C35.1439 0 41 5.82796 41 12.991C41 20.1541 35.6046 25.5096 28.8055 25.9539C29.0662 26.3377 29.314 26.7009 29.5486 27.0447C33.109 32.2705 33.85 33.3581 35.3439 36.3645C36.0479 37.7828 37.2799 40.6282 39.8364 48.9209L30.4884 51.7738C28.7501 46.134 27.4333 42.3989 26.5772 40.6746C25.9285 39.3687 25.5005 38.5774 24.6889 37.3136C24.7204 38.5006 24.7899 39.7352 24.8986 41.0184C25.1419 43.894 25.5428 46.521 25.9079 48.5307C30.8839 55.458 32.7624 60.2525 33.5066 67.6837C33.7478 70.0912 33.8108 72.3863 33.8271 75.2727H38.3316V85.0022H24.0522V78.7126C24.0555 74.1862 24.0565 71.4544 23.7762 68.648C23.4058 64.9432 22.7626 62.326 21.2839 59.4471C19.8052 62.3249 19.162 64.9421 18.7915 68.6469C18.5112 71.4533 18.5123 74.1851 18.5156 78.7115V85.0011H4.23722V75.2716H8.74171C8.75692 72.3863 8.82103 70.0912 9.06222 67.6826ZM31.2218 12.991C31.2218 11.1921 29.7507 9.72948 27.9439 9.72948C26.1371 9.72948 24.6661 11.1932 24.6661 12.991C24.6661 14.7888 26.1371 16.2526 27.9439 16.2526C29.7507 16.2526 31.2218 14.7888 31.2218 12.991Z"
            fill="#FAFAFA" />
    </g>
    <defs>
        <clipPath id="clip0_1937_11918">
            <rect width="41" height="85" fill="white" transform="matrix(-1 0 0 1 41 0)" />
        </clipPath>
    </defs>
</svg>