<svg width="76" height="121" viewBox="0 0 76 121" fill="none" xmlns="http://www.w3.org/2000/svg">
    <path
        d="M65.4792 95.3393C64.8213 88.8532 62.561 82.9243 58.7487 77.7188C54.7931 72.3138 49.1844 67.7985 42.1166 64.2562C41.5937 63.6242 41.0623 62.9506 40.531 62.2355C37.7477 58.4769 34.5343 52.889 35.0066 47.6087C35.0235 47.4008 35.0572 47.2012 35.0825 46.9933C39.8141 56.132 47.0168 59.0673 51.5122 59.9903C52.9545 60.2897 54.4136 60.4311 55.8811 60.4311C62.8308 60.4311 69.9577 57.1548 75.9965 51.0845L65.9515 41.3887C59.7271 48.1492 48.8133 46.7605 46.1144 36.9649C47.059 37.0148 48.0121 36.9982 48.9904 36.8984C57.7619 36.0336 64.8635 29.0403 65.7406 20.3839C66.9214 8.70908 56.9944 -1.06987 45.1445 0.0942937C36.373 0.959099 29.2714 7.95238 28.3943 16.6087C27.9641 20.8247 28.9931 24.7828 31.0257 28.084C31.0088 28.1007 30.992 28.109 30.9835 28.1256C17.9612 25.7225 7.57882 29.19 3.06655 36.94C-0.366141 42.8439 -1.03244 49.7291 1.67492 59.6993L15.2539 56.1154C14.0309 51.6084 12.867 46.7688 15.6081 43.1932C16.6624 41.8211 18.9565 40.5738 22.3048 40.4491C21.6301 42.3866 21.1831 44.3906 21.006 46.4528C20.618 50.86 21.3939 55.4751 23.3 60.1733C24.717 63.6658 26.7749 67.2165 29.4148 70.7256C29.71 71.1247 30.0136 71.5072 30.3088 71.8814C30.7643 89.0445 1.0761 104.553 1.0761 104.553L16.6286 120.011L26.5641 110.216L22.3723 105.966C34.8885 100.029 40.4213 89.9841 42.8166 81.1199C47.9615 85.3524 50.8797 90.5745 51.4954 96.7279C51.9002 100.728 51.9002 104.611 51.8918 111.055V120.019H73.2554V106.166H65.9346C65.9093 102.058 65.8165 98.7902 65.4707 95.3559L65.4792 95.3393ZM48.147 13.9811C49.876 14.3636 51.2761 15.7356 51.6556 17.4403C52.4231 20.8247 49.4206 23.785 45.9879 23.0283C44.2589 22.6457 42.8588 21.2737 42.4793 19.569C41.7118 16.1847 44.7143 13.2244 48.147 13.9811Z"
        style="fill: var(--fill, #FFF8F8)" />
</svg>
    