<svg width="135" height="119" viewBox="0 0 135 119" fill="none" xmlns="http://www.w3.org/2000/svg">
<path d="M67.6307 42.6617C104.43 42.6617 134.261 33.3354 134.261 21.8309C134.261 10.3263 104.43 1 67.6307 1C30.8316 1 1 10.3263 1 21.8309C1 33.3354 30.8316 42.6617 67.6307 42.6617Z" stroke="#FAFAFA" stroke-linejoin="round"/>
<path d="M74.0287 94.4612C90.382 95.4692 102.772 100.281 102.772 106.059C102.772 112.575 87.0407 117.854 67.6307 117.854C48.2207 117.854 32.4893 112.575 32.4893 106.059C32.4893 100.426 44.2417 95.7186 59.9626 94.5443" stroke="#FAFAFA" stroke-linejoin="round"/>
<path d="M61.1328 106.219V42.6616H73.0487V106.219L72.8115 106.277C71.125 106.375 69.3859 106.422 67.6098 106.422C65.4702 106.422 63.3832 106.349 61.3805 106.209L61.1328 106.219Z" stroke="#FAFAFA" stroke-linejoin="round"/>
</svg>
