<svg width="27" height="28" viewBox="0 0 27 28" fill="none" xmlns="http://www.w3.org/2000/svg">
<path fill-rule="evenodd" clip-rule="evenodd" d="M0 3.3125C0 1.7592 1.2592 0.5 2.8125 0.5H9.5625C11.1158 0.5 12.375 1.7592 12.375 3.3125V10.0625C12.375 11.6158 11.1158 12.875 9.5625 12.875H2.8125C1.2592 12.875 0 11.6158 0 10.0625V3.3125ZM2.8125 2.75C2.50184 2.75 2.25 3.00184 2.25 3.3125V10.0625C2.25 10.3732 2.50184 10.625 2.8125 10.625H9.5625C9.87316 10.625 10.125 10.3732 10.125 10.0625V3.3125C10.125 3.00184 9.87316 2.75 9.5625 2.75H2.8125ZM14.625 3.3125C14.625 1.7592 15.8842 0.5 17.4375 0.5H24.1875C25.7408 0.5 27 1.7592 27 3.3125V10.0625C27 11.6158 25.7408 12.875 24.1875 12.875H17.4375C15.8842 12.875 14.625 11.6158 14.625 10.0625V3.3125ZM17.4375 2.75C17.1268 2.75 16.875 3.00184 16.875 3.3125V10.0625C16.875 10.3732 17.1268 10.625 17.4375 10.625H24.1875C24.4982 10.625 24.75 10.3732 24.75 10.0625V3.3125C24.75 3.00184 24.4982 2.75 24.1875 2.75H17.4375ZM4.5 6.125C4.5 5.50368 5.00368 5 5.625 5H6.75C7.37132 5 7.875 5.50368 7.875 6.125V7.25C7.875 7.87132 7.37132 8.375 6.75 8.375H5.625C5.00368 8.375 4.5 7.87132 4.5 7.25V6.125ZM19.125 6.125C19.125 5.50368 19.6287 5 20.25 5H21.375C21.9963 5 22.5 5.50368 22.5 6.125V7.25C22.5 7.87132 21.9963 8.375 21.375 8.375H20.25C19.6287 8.375 19.125 7.87132 19.125 7.25V6.125ZM0 17.9375C0 16.3842 1.2592 15.125 2.8125 15.125H9.5625C11.1158 15.125 12.375 16.3842 12.375 17.9375V24.6875C12.375 26.2408 11.1158 27.5 9.5625 27.5H2.8125C1.2592 27.5 0 26.2408 0 24.6875V17.9375ZM2.8125 17.375C2.50184 17.375 2.25 17.6268 2.25 17.9375V24.6875C2.25 24.9982 2.50184 25.25 2.8125 25.25H9.5625C9.87316 25.25 10.125 24.9982 10.125 24.6875V17.9375C10.125 17.6268 9.87316 17.375 9.5625 17.375H2.8125ZM14.625 16.25C14.625 15.6287 15.1287 15.125 15.75 15.125H16.875C17.4963 15.125 18 15.6287 18 16.25V17.375C18 17.9963 17.4963 18.5 16.875 18.5H15.75C15.1287 18.5 14.625 17.9963 14.625 17.375V16.25ZM23.625 16.25C23.625 15.6287 24.1287 15.125 24.75 15.125H25.875C26.4963 15.125 27 15.6287 27 16.25V17.375C27 17.9963 26.4963 18.5 25.875 18.5H24.75C24.1287 18.5 23.625 17.9963 23.625 17.375V16.25ZM4.5 20.75C4.5 20.1287 5.00368 19.625 5.625 19.625H6.75C7.37132 19.625 7.875 20.1287 7.875 20.75V21.875C7.875 22.4963 7.37132 23 6.75 23H5.625C5.00368 23 4.5 22.4963 4.5 21.875V20.75ZM19.125 20.75C19.125 20.1287 19.6287 19.625 20.25 19.625H21.375C21.9963 19.625 22.5 20.1287 22.5 20.75V21.875C22.5 22.4963 21.9963 23 21.375 23H20.25C19.6287 23 19.125 22.4963 19.125 21.875V20.75ZM14.625 25.25C14.625 24.6287 15.1287 24.125 15.75 24.125H16.875C17.4963 24.125 18 24.6287 18 25.25V26.375C18 26.9963 17.4963 27.5 16.875 27.5H15.75C15.1287 27.5 14.625 26.9963 14.625 26.375V25.25ZM23.625 25.25C23.625 24.6287 24.1287 24.125 24.75 24.125H25.875C26.4963 24.125 27 24.6287 27 25.25V26.375C27 26.9963 26.4963 27.5 25.875 27.5H24.75C24.1287 27.5 23.625 26.9963 23.625 26.375V25.25Z" fill="#FAFAFA"/>
</svg>
