<svg xmlns="http://www.w3.org/2000/svg" fill="none">
    <path
        d="M60.5 38.4032C93.6371 38.4032 120.5 30.005 120.5 19.6453C120.5 9.28565 93.6371 0.887451 60.5 0.887451C27.3629 0.887451 0.5 9.28565 0.5 19.6453C0.5 30.005 27.3629 38.4032 60.5 38.4032Z"
        stroke="#FAFAFA"
        stroke-linejoin="round"></path>
    <path
        d="M66.2614 85.0479C80.9873 85.9556 92.1445 90.2883 92.1445 95.4913C92.1445 101.359 77.9786 106.112 60.5001 106.112C43.0217 106.112 28.8557 101.359 28.8557 95.4913C28.8557 90.4193 39.4386 86.1802 53.5951 85.1227"
        stroke="#FAFAFA"
        stroke-linejoin="round"></path>
    <path
        d="M54.6487 95.6357V38.4028H65.3787V95.6357L65.1652 95.6872C63.6465 95.7761 62.0805 95.8182 60.4812 95.8182C58.5544 95.8182 56.6751 95.7527 54.8717 95.6263L54.6487 95.6357Z"
        stroke="#FAFAFA"
        stroke-linejoin="round"></path>
</svg>