<svg width="219" height="41" viewBox="0 0 219 41" fill="none" xmlns="http://www.w3.org/2000/svg">
<g clip-path="url(#clip0_2070_11868)">
<path d="M11.3303 8.65576C17.9723 8.65576 22.2951 13.3928 22.2951 20.3187V22.2781H5.87114C6.00737 25.3751 8.41963 27.6072 11.6027 27.6072C14.7858 27.6072 16.1083 25.8774 16.8824 24.1443L21.5674 26.6026C20.2948 29.0177 17.6101 32.5239 11.42 32.5239C4.68828 32.5272 0 27.7902 0 20.5915C0 13.3928 4.68828 8.65576 11.3303 8.65576ZM16.4738 17.9935C16.2013 15.3954 14.2443 13.5758 11.2871 13.5758C8.32992 13.5758 6.28315 15.4885 5.91766 17.9935H16.4738Z" fill="#FAFAFA"/>
<path d="M42.0117 31.8886V28.8348H41.5565C40.1909 30.7941 38.0079 32.5239 34.0938 32.5239C28.7244 32.5239 23.8999 27.9699 23.8999 20.5882C23.8999 13.2065 28.7244 8.65247 34.0938 8.65247C38.0079 8.65247 40.1909 10.3823 41.5565 12.3416H42.0117V9.28784H47.6536V31.8819H42.0117V31.8886ZM42.0117 20.5915C42.0117 16.1273 39.3735 13.5758 35.8249 13.5758C32.2763 13.5758 29.6381 16.1273 29.6381 20.5915C29.6381 25.0558 32.2763 27.6073 35.8249 27.6073C39.3735 27.6073 42.0117 25.0558 42.0117 20.5915Z" fill="#FAFAFA"/>
<path d="M60.0638 8.65576C65.1142 8.65576 68.4369 11.1607 69.5267 14.8066L64.34 16.4C63.7951 13.9417 62.2468 13.0302 60.0638 13.0302C57.8808 13.0302 56.6979 13.8951 56.6979 15.2623C56.6979 16.7659 57.9705 17.4046 60.3362 17.8604L61.5191 18.0866C66.6161 19.0879 70.4371 20.3653 70.4371 25.1023C70.4371 29.8394 66.7058 32.5272 60.9742 32.5272C55.2426 32.5272 51.0992 29.8859 50.3284 25.1489L55.6081 23.7817C56.1995 27.0617 58.3393 28.1561 60.9775 28.1561C63.6157 28.1561 64.8916 27.0184 64.8916 25.5581C64.8916 24.0977 63.6157 23.4158 60.7981 22.8702L59.6152 22.644C54.8837 21.7325 51.1524 20.0925 51.1524 15.6283C51.1524 11.164 54.701 8.65909 60.0704 8.65909L60.0638 8.65576Z" fill="#FAFAFA"/>
<path d="M94.4168 9.29443L84.7246 41H78.5378L81.6777 31.8885H76.7635L69.849 9.29443H76.0358L81.8604 30.0689H82.4053L88.23 9.29443H94.4168Z" fill="#FAFAFA"/>
<path d="M118.17 31.8885H112.529V28.8347H112.073C110.708 30.7941 108.525 32.5239 104.611 32.5239C99.2413 32.5239 94.4168 27.9698 94.4168 20.5882C94.4168 13.2065 99.2413 8.65241 104.611 8.65241C108.525 8.65241 110.708 10.3822 111.98 12.2052H112.436V0H118.17V31.8885ZM100.152 20.5915C100.152 25.0557 102.79 27.6072 106.338 27.6072C109.887 27.6072 112.525 25.0557 112.525 20.5915C112.525 16.1272 109.887 13.5757 106.338 13.5757C102.79 13.5757 100.152 16.1272 100.152 20.5915Z" fill="#FAFAFA"/>
<path d="M139.1 31.8886V28.8348H138.645C137.279 30.7941 135.096 32.5239 131.182 32.5239C125.813 32.5239 120.988 27.9699 120.988 20.5882C120.988 13.2065 125.813 8.65247 131.182 8.65247C135.096 8.65247 137.279 10.3823 138.645 12.3416H139.1V9.28784H144.742V31.8819H139.1V31.8886ZM139.1 20.5915C139.1 16.1273 136.462 13.5758 132.913 13.5758C129.365 13.5758 126.726 16.1273 126.726 20.5915C126.726 25.0558 129.365 27.6073 132.913 27.6073C136.462 27.6073 139.1 25.0558 139.1 20.5915Z" fill="#FAFAFA"/>
<path d="M154.57 9.29439V12.6642H155.025C155.936 10.7514 157.846 8.92847 161.986 8.92847C167.266 8.92847 170.768 12.8006 170.768 18.4025V31.8885H165.033V18.6786C165.033 15.2623 163.306 13.5757 160.209 13.5757C156.707 13.5757 154.657 16.034 154.657 20.2255V31.8885H148.925V9.29439H154.567H154.57Z" fill="#FAFAFA"/>
<path d="M184.149 8.65579C190.428 8.65579 194.25 12.345 195.253 17.4014L189.701 18.5856C189.382 15.8512 187.701 13.6656 184.242 13.6656C180.783 13.6656 178.145 16.2171 178.145 20.5915C178.145 24.966 180.783 27.5141 184.242 27.5141C187.701 27.5141 189.382 25.465 189.884 22.5476L195.436 23.8682C194.163 28.8348 190.475 32.5239 184.152 32.5239C177.829 32.5239 172.413 27.6039 172.413 20.5882C172.413 13.5725 177.6 8.65247 184.152 8.65247L184.149 8.65579Z" fill="#FAFAFA"/>
<path d="M208.035 8.65579C214.677 8.65579 219 13.3928 219 20.3188V22.2781H202.573C202.709 25.3751 205.121 27.6073 208.304 27.6073C211.487 27.6073 212.81 25.8775 213.584 24.1443L218.269 26.6026C216.996 29.0177 214.312 32.5239 208.122 32.5239C201.387 32.5239 196.702 27.7869 196.702 20.5882C196.702 13.3895 201.39 8.65247 208.032 8.65247L208.035 8.65579ZM213.179 17.9935C212.906 15.3954 210.949 13.5758 207.992 13.5758C205.035 13.5758 202.988 15.4886 202.623 17.9935H213.179Z" fill="#FAFAFA"/>
</g>
<defs>
<clipPath id="clip0_2070_11868">
<rect width="219" height="41" fill="white"/>
</clipPath>
</defs>
</svg>
